<svg id="Capa_1" enable-background="new 0 0 371.263 371.263" height="512" viewBox="0 0 371.263 371.263" width="512" xmlns="http://www.w3.org/2000/svg"><g><g><path d="m44.901 323.358h72.217c2.994 26.887 25.869 47.905 53.534 47.905s50.54-21.018 53.534-47.905h102.157c.419 0 .898-.06 1.317-.12l21.557 15.809c2.096 1.497 4.611 2.275 7.066 2.275 3.713 0 7.306-1.677 9.701-4.91 3.892-5.329 2.755-12.815-2.575-16.767l-335.335-245.512c-5.329-3.892-12.815-2.755-16.707 2.575-3.892 5.329-2.755 12.815 2.575 16.767l42.875 31.378c-3.892 11.856-5.928 24.252-5.928 36.827v73.115c0 2.575-2.096 4.731-4.731 4.731-22.096 0-40.959 16.647-42.995 37.845-1.138 11.797 2.755 23.533 10.719 32.276 7.905 8.681 19.222 13.711 31.019 13.711zm125.75 23.952c-14.431 0-26.527-10.3-29.342-23.952h58.683c-2.813 13.653-14.909 23.952-29.341 23.952zm-124.493-83.833c15.809 0 28.683-12.874 28.683-28.683v-73.115c0-7.365.898-14.611 2.515-21.677l217.728 159.403h-250.183c-5.15 0-9.82-2.096-13.294-5.868-3.473-3.772-5.09-8.743-4.551-13.892.839-9.042 9.222-16.168 19.102-16.168z"/><path d="m278.437 228.806c6.587 0 11.976-5.389 11.976-11.976v-52.576c0-52.396-33.533-98.085-79.702-115.151.539-2.695.838-5.449.838-8.204.001-22.575-18.323-40.899-40.898-40.899s-40.899 18.324-40.899 40.899c0 2.695.299 5.329.778 7.964-18.383 6.527-35.15 17.545-48.623 32.396-4.431 4.91-4.072 12.455.838 16.886s12.455 4.072 16.946-.838c18.982-20.958 46.228-32.396 74.492-31.378 50.839 1.796 92.277 45.929 92.277 98.325v52.576c.001 6.646 5.39 11.976 11.977 11.976zm-91.079-185.692c-4.072-.599-8.204-1.018-12.336-1.138-7.126-.24-14.132.12-21.078 1.138-.12-.719-.24-1.497-.24-2.216 0-9.341 7.605-16.946 16.946-16.946s16.946 7.605 16.946 16.946c.002.779-.118 1.498-.238 2.216z"/></g></g></svg>