<svg enable-background="new 0 0 24 24" height="512" viewBox="0 0 24 24" width="512" xmlns="http://www.w3.org/2000/svg"><circle cx="12" cy="20" fill="#ffa000" r="3.296"/><path d="m20.382 17.455c-1.351-1.174-2.126-2.891-2.126-4.71v-2.562c0-3.548-2.807-6.434-6.256-6.434s-6.256 2.886-6.256 6.434v2.562c0 1.819-.775 3.536-2.134 4.717-.348.306-.547.752-.547 1.222 0 .887.702 1.608 1.564 1.608h14.747c.862 0 1.564-.722 1.564-1.608 0-.469-.2-.915-.556-1.229z" fill="#ffc107"/><path d="m12 24c-2.068 0-3.75-1.682-3.75-3.75 0-.414.336-.75.75-.75s.75.336.75.75c0 1.241 1.009 2.25 2.25 2.25s2.25-1.009 2.25-2.25c0-.414.336-.75.75-.75s.75.336.75.75c0 2.068-1.682 3.75-3.75 3.75z"/><path d="m20.25 21c-.414 0-.75-.336-.75-.75s.336-.75.75-.75c.136 0 .25-.114.25-.25 0-.071-.027-.123-.055-.156-.014-.01-.027-.021-.041-.032-1.846-1.57-2.904-3.856-2.904-6.271v-2.791c0-1.47-.572-2.851-1.61-3.89s-2.42-1.61-3.89-1.61c-1.91 0-3.653.971-4.663 2.596-.219.352-.681.46-1.033.241-.351-.218-.459-.681-.241-1.033 1.286-2.069 3.505-3.304 5.937-3.304 1.871 0 3.628.728 4.95 2.05s2.05 3.079 2.05 4.95v2.79c0 1.948.842 3.792 2.313 5.075.026.017.051.035.074.055.39.333.613.818.613 1.33 0 .965-.785 1.75-1.75 1.75z"/><path d="m16.75 21h-13c-.965 0-1.75-.785-1.75-1.75 0-.512.223-.997.612-1.33.024-.021.05-.04.077-.057 1.47-1.282 2.311-3.126 2.311-5.073v-2.79c0-.273.012-.546.046-.808.054-.411.433-.7.841-.646.411.054.7.431.646.841-.026.199-.033.406-.033.613v2.79c0 2.416-1.059 4.702-2.904 6.271-.013.011-.027.022-.041.032-.028.035-.055.087-.055.157 0 .136.114.25.25.25h13c.414 0 .75.336.75.75s-.336.75-.75.75z"/><path d="m12 4.5c-.414 0-.75-.336-.75-.75v-3c0-.414.336-.75.75-.75s.75.336.75.75v3c0 .414-.336.75-.75.75z"/><path d="m23.25 24c-.192 0-.384-.073-.53-.22l-22.5-22.5c-.293-.293-.293-.768 0-1.061s.768-.293 1.061 0l22.5 22.5c.293.293.293.768 0 1.061-.147.147-.339.22-.531.22z"/></svg>